PathFileType	4	(X/Y/Z)	/mnt/D494C4CF94C4B4F0/Trampoline_predictions/poses3d/1_partie_0429_002.trc
DataRate	CameraRate	NumFrames	NumMarkers	Units	OrigDataRate	OrigDataStartFrame	OrigNumFrames
120	120	8	17	m	120	788	1261
Frame#	Time	Nose			L Eye			R Eye			L Ear			R Ear			L Shoulder			R Shoulder			L Elbow			R Elbow			L Wrist			R Wrist			L Hip			R Hip			L Knee			R Knee			L Ankle			R Ankle			
		X1	Y1	Z1	X2	Y2	Z2	X3	Y3	Z3	X4	Y4	Z4	X5	Y5	Z5	X6	Y6	Z6	X7	Y7	Z7	X8	Y8	Z8	X9	Y9	Z9	X10	Y10	Z10	X11	Y11	Z11	X12	Y12	Z12	X13	Y13	Z13	X14	Y14	Z14	X15	Y15	Z15	X16	Y16	Z16	X17	Y17	Z17	
788	6.566666666666666	0.7262467548400017	0.037046181039051496	2.18651630417306	0.7093218794911236	0.05093401973189021	2.2198310828666243	0.7111702518069292	0.014038141924166853	2.2328858793037556	0.6186828990796482	0.07267390574976297	2.249182027951221	0.6133097466854746	-0.02416368016220647	2.2800670161456495	0.5709048679235227	0.11631612214662898	2.153471051936846	0.5210171894238056	-0.10740456221509093	2.1908282034928193	0.7699056099009505	0.19187967295996267	2.16779801603437	0.7482509526894443	-0.21280057593970056	2.265583462158267	0.9911534760828415	0.13664640396191144	2.2421629509726055	0.9623884109150194	-0.19130161408495186	2.3532701712077655	0.2621389148287779	0.06237177184526158	1.7674466901271753	0.2317520294260969	-0.11118094268444247	1.7837963435567035	0.24754570078417665	0.10193166687074291	1.3972845606891178	0.2497760117956831	-0.12922465677184133	1.4060716554129786	0.17237981840951513	0.12097670679381665	1.0214083383725574	0.16375380054555028	-0.13554389058618818	1.037474705114191
789	6.575	0.7456497690672156	0.03251412077655011	2.251201366415296	0.7276943892206763	0.04685809610278398	2.2834597550528097	0.7292796585431885	0.013013505261541798	2.2946613160624114	0.6378990212681386	0.07711485128901578	2.300689006360931	0.6325995592416226	-0.020679959722978227	2.339180893755018	0.5211659067677697	0.12089689833615905	2.2310094084449283	0.5396244624877425	-0.09973193486975857	2.250598814091126	0.7794171596822042	0.20695881282512937	2.174150962241246	0.7611979064541604	-0.2282188208613212	2.2761158846424348	1.017822720982799	0.1413624411386356	2.215406297392533	0.9928294341619511	-0.21262124750573566	2.3545235365603117	0.24732817993497525	0.06633713293463157	1.8312085337383397	0.23862484395672465	-0.10985062002621397	1.8501593365891364	0.2461290489201612	0.08725065326953896	1.4664313144916217	0.24062820685283673	-0.13387242430884683	1.4908041322184786	0.1893614214284828	0.10404586561653834	1.0863836640691162	0.197682093991633	-0.1467241688269948	1.0973601414852105
790	6.583333333333333	0.7586712480211424	0.03694513969414347	2.285708119230289	0.7437653148209261	0.06293613665415547	2.3227371063248086	0.7503357832119099	0.019434866139464737	2.328455103753908	0.6663916110780566	0.08745480314384256	2.343439820000303	0.6670290861950902	-0.009324833682634193	2.371776147419896	0.5568471868149095	0.17141585253201985	2.2500453690148117	0.5568321347593939	-0.08673816812416107	2.303138017570724	0.8056681038442972	0.197816778847128	2.1975810859835536	0.7845863398160547	-0.22871882954419406	2.3077055038147427	1.050952935422028	0.12114967014371628	2.199921839958039	1.0224147262949488	-0.23581197875222348	2.356893851703749	0.2500736123104081	0.06780600073830322	1.9032808219231527	0.23278791528167786	-0.1082807583089219	1.9283145421763053	0.23048765772747015	0.08371957432577215	1.5283353814716463	0.2314149978184204	-0.1319627679575568	1.547014799800852	0.19951390964828597	0.07998456542026647	1.1593582678171426	0.2028477426176426	-0.15042286569990698	1.1581248205736208
791	6.591666666666667	0.7792166089822024	0.035430795692016084	2.306086955232286	0.7649404455373371	0.05821005975632458	2.3475199262222364	0.7710656096803039	0.00959243034904069	2.358441997485763	0.6821519253510542	0.09425967569752351	2.3860031308051615	0.6895079187271081	-0.013948010227117329	2.4180376205810155	0.5955376232396876	0.1584113576532339	2.2983471817535266	0.5712630706308487	-0.08523118748004338	2.3612053132628246	0.7960939385776595	0.17654200273531162	2.2233297435638377	0.8112139062753931	-0.24373757582405506	2.334692057676789	1.0293959175964742	0.16034764041035607	2.1580017063103334	1.0413907770357305	-0.25691041350038274	2.358137345978981	0.24949253025406662	0.058869280415470966	1.9822612398812232	0.2303572676904542	-0.10817571830965807	1.9991875732213786	0.21366515743488984	0.08229663840816104	1.593414158213707	0.21402427533149798	-0.1407578121460075	1.606115959329942	0.2017204248986894	0.08034293231330361	1.2164676210636425	0.1850862131519218	-0.15118406645125426	1.2151490264597975
792	6.6	0.8007267094935057	0.03843045786637039	2.3671807311254165	0.7908383958032323	0.04735149959046612	2.383679467109418	0.798166417752283	0.03515560767603819	2.417332302589237	0.7166997797769671	0.07825520035377626	2.4276416390460422	0.7129838976489002	0.007176993723430498	2.4507258529925857	0.6202419138149782	0.17093541833676582	2.329457828184002	0.5903081570674722	-0.07674772592040596	2.392186116006275	0.8069732380265479	0.18271938721992947	2.217729787321867	0.8253260694660794	-0.2348400941609077	2.355741900557731	1.0239552675054862	0.15388938728858076	2.1095972584204787	1.0592640869406538	-0.2657059575367845	2.3577015155734027	0.23440446483363123	0.06282714232992687	2.037058553346809	0.21947497294609475	-0.11321902755435492	2.0646900271952386	0.19685093449520646	0.07878972002748627	1.6590850098075212	0.20367396266363294	-0.1453363722849056	1.6591607935434347	0.18218097451576243	0.09122648681444745	1.2911093699126395	0.1775540067973424	-0.14853662864946893	1.2934534765782626
793	6.608333333333333	0.8071748647671947	0.05835124849111446	2.391530616216283	0.7983522623054531	0.06008413153590866	2.4141690678919594	0.8102673672460108	0.022549820040978417	2.4253621720348257	0.7399061878014817	0.09757790195566142	2.4635381108882775	0.7471898101386674	0.001533641264634448	2.4848878595655846	0.6274732866779691	0.182608736717078	2.3793925267000664	0.6044918059826876	-0.07479234935912654	2.444237546216474	0.8049739015096617	0.19416250475351524	2.2190089778005073	0.8419841008090324	-0.2179068571885147	2.3811305848471385	0.9956086823806245	0.16048666372622775	2.08583217306881	1.0632998759285366	-0.2779847429334526	2.361139475766474	0.23345886424099485	0.04232864661128384	2.1168651870260065	0.21528320705965132	-0.10417841198642307	2.142243729513562	0.19152868571013953	0.07297262455818929	1.739558569199102	0.20256904118311553	-0.1624837964709578	1.7514710574030559	0.17528747164410563	0.0800797887564236	1.3574679347134389	0.17826848353171867	-0.1638768225146895	1.3541425001745682
794	6.616666666666666	0.8093805703700628	0.02183317020832209	2.3796972487027688	0.8422223784679033	0.06367497997299534	2.4847237700578186	0.858544809427855	0.03348246147683988	2.486460679870678	0.7547612208177082	0.10071276552882465	2.497636368529756	0.7860389316056954	0.0009925450275713834	2.5353707667330836	0.6187069618255235	0.1865866245019723	2.4245195862029445	0.6448005698196204	-0.08717491530222342	2.4868604976721773	0.7846967871073494	0.20756078607218695	2.2273662577359192	0.8558019193679124	-0.22738177968079473	2.409838010522771	0.9609097585077704	0.14394727189012657	2.0559102082160914	1.0714166257689528	-0.2860319937613418	2.3566429757355554	0.22511896618628957	0.03625081713828047	2.185820211837151	0.22447897028063524	-0.10023906413554025	2.20843372156394	0.18295657411767202	0.06979643698431379	1.7949379154543899	0.1904619123523393	-0.1650423964191011	1.813640025738669	0.1739170512550213	0.07486331592265912	1.4270460228884196	0.1815890402931198	-0.18485178791504842	1.4223252651850302
795	6.625	0.8231992952827314	0.05620823305642027	2.411020542853386	0.8228029110632805	0.09094079813736	2.4448293159305408	0.8348229979296519	0.04107775348629129	2.4582002583173534	0.7698732767991414	0.12742521689465536	2.5041229489849908	0.7812956180804427	0.012009568520530612	2.556429830303592	0.6295803675376181	0.18715608809998746	2.466764441921634	0.6625741157559542	-0.09836567671587017	2.5283989719273343	0.7757108832762623	0.18984905956687187	2.2331834244802065	0.85909006397334	-0.21814272315846625	2.4223836768241096	0.909270056197288	0.14058721593669818	2.045639474269225	1.0675253495619865	-0.29457930165427054	2.3455229297303357	0.22519685444216236	0.05392882222711641	2.260366123527492	0.22814792728209146	-0.11430735810618996	2.2852129294334302	0.1689043364006445	0.0592831097707344	1.8739482166121253	0.1948072734707086	-0.1727337236248139	1.8873162184801622	0.1586406472481738	0.060419454624254396	1.5100116236349659	0.17175805008704423	-0.19551750268313944	1.5139283393153864
